<svg xmlns="http://www.w3.org/2000/svg" viewBox="0 0 448 512">
  <path fill="#FF9900" d="M257.2 162.7c-48.7 1.8-169.5 15.5-169.5 117.5 0 109.5 138.3 114 183.5 43.2 6.5 10.2 35.4 37.5 45.3 46.8l56.8-56C361.8 297.9 325.1 193.4 257.2 162.7zm-15.6 58.5c-21.6 4.9-56.7 9.11-90.9 27.96-45.9 25.1-74.8 58.5-74.8 102.5 0 32.1 29.4 56.8 60.2 56.8 33.3 0 59.9-17.2 80.4-32.5 29.3-22.1 51.1-49.8 51.1-49.8-8.2-11.7-25.6-15.6-25.6-15.6z"/>
  <path fill="#FF9900" d="M35.2 331.1L230.8 496l-9.6-48.4c-8.3 1.7-41.3 5.6-41.3-30.5 0-11.2 19.9-26.4 19.9-26.4s-38.7-58.5-86.4-63.7c-35.1-3.8-74.5-10.7-74.5-10.7s-4.6-57.3 1.3-72.2L35.2 331.1z"/>
</svg>
