<svg xmlns="http://www.w3.org/2000/svg" viewBox="0 0 1024 276.742">
  <path d="M140.803 258.904c-15.404 2.705-31.079 3.516-47.294 5.676L44.051 119.724v151.073C28.647 272.418 14.594 274.58 0 276.742V0h44.051v101.661L162.132 0h60.532l-102.429 123.233-1.524 1.524L239.94 276.742h-60.532l-83.333-98.498z" fill="#E50914"/>
  <path d="M264.403 276.742V0h44.051v233.233c0 15.969 0 31.888 0 47.294 0 2.705-1.524 3.516-3.516 3.516-13.543-.811-26.323-2.033-40.535-3.516z" fill="#E50914"/>
  <path d="M339.583 276.742V0h44.051v276.742h-44.051z" fill="#E50914"/>
  <path d="M500 276.742c-58.015-5.487-116.9-4.676-175.758-13.266V0h44.051v233.233c43.239 0 86.758-.811 131.707 13.266V276.742z" fill="#E50914"/>
  <path d="M579.439 276.742V0h44.051v276.742h-44.051z" fill="#E50914"/>
  <path d="M722.156 276.742L611.581 4.676C606.674 2.033 601.766 0 596.858 0h-44.051l126.218 276.742h43.131z" fill="#E50914"/>
  <path d="M886.824 276.742c-58.015-5.487-116.9-4.676-175.758-13.266V0h44.051v233.233c43.239 0 86.758-.811 131.707 13.266V276.742z" fill="#E50914"/>
  <path d="M1024 276.742V0h-44.051v276.742H1024z" fill="#E50914"/>
</svg>
