<svg xmlns="http://www.w3.org/2000/svg" viewBox="0 0 384 512">
  <path fill="#003087" d="M111.4 295.9c-3.5 19.2-17.4 108.7-21.5 134-.3 1.8-1 2.5-3 2.5H24.8c-7.6 0-13.1-6.6-12.1-13.9L65.4 113.2c.9-7.9 8.7-13.9 16.8-13.9h111.5c61.3 0 93.8 31.4 93.8 93.8 0 61.5-29.5 103.7-103.7 103.7h-73.4zM202.3 96.7c0-7.1-5.8-12.9-12.9-12.9H111.4c-7.1 0-12.9 5.8-12.9 12.9v78h78c43.3 0 78-34.7 78-78s-34.7-78-78-78h-78z"/>
  <path fill="#0070BA" d="M322.1 230.9c7.8-48.9 32.2-74.4 89.6-74.4 45.1 0 81.2 15.1 81.2 82.4 0 51.8-17.3 78.4-78.4 78.4l-92.4-86.4z"/>
</svg>
